<?xml version="1.0" encoding="utf-8"?>
<!-- Generator: Adobe Illustrator 27.0.1, SVG Export Plug-In . SVG Version: 6.00 Build 0)  -->
<svg version="1.1" id="Layer_1" xmlns="http://www.w3.org/2000/svg" xmlns:xlink="http://www.w3.org/1999/xlink" x="0px" y="0px"
	 viewBox="0 0 128 128" style="enable-background:new 0 0 128 128;" xml:space="preserve">
<style type="text/css">
	.st0{fill:#FFFFFF;}
	.st1{fill:#6CBE45;}
	.st2{fill:#414042;}
</style>
<g transform="matrix(.10073078 0 0 .10073078 12.425923 2.256365)">
	<path class="st0" d="M919.2,771.7c0,0-1.4-8.3-2.1-8.2L766.5,778c-12,1.2-21.3,10.7-22.1,22.7l-4.1,59.3l-116.5,8.3l-7.9-53.7
		c-1.8-12-12.2-21-24.3-21h-159c-12.1,0-22.5,9-24.3,21l-7.9,53.7L283.8,860l-4.1-59.3c-0.8-12-10.1-21.6-22.1-22.7l-150.7-14.5
		c-0.8-0.1-1.3,8.2-2.1,8.2l-0.2,32.6l127.6,20.6l4.2,59.8c0.8,12.1,10.6,21.9,22.7,22.8l160.5,11.4c0.6,0,1.2,0.1,1.8,0.1
		c12.1,0,22.5-9,24.2-21l8.2-55.3h116.6l8.2,55.3c1.8,12,12.2,21,24.3,21c0.6,0,1.2,0,1.8-0.1L765,907.5
		c12.1-0.9,21.9-10.7,22.7-22.8l4.2-59.8l127.6-20.7L919.2,771.7z"/>
	<path class="st1" d="M104.7,525.9v197.8v25.1v22.9c0.4,0,0.9,0,1.3,0.1l150.7,14.5c7.9,0.8,14.1,7.1,14.6,15l4.6,66.5l131.4,9.4
		l9.1-61.4c1.2-8,8-13.9,16.1-13.9h159c8,0,14.9,5.9,16,13.9l9.1,61.4l131.4-9.4l4.6-66.5c0.6-7.9,6.7-14.3,14.6-15l150.6-14.5
		c0.4,0,0.9-0.1,1.3-0.1v-19.6l0.1,0V525.9c21.2-26.7,41.3-56.2,56.7-81c-23.5-40-52.3-75.8-83.2-109c-28.6,14.4-56.3,30.7-82.5,48
		c-13.1-13-27.9-23.7-42.4-34.8c-14.3-11.5-30.3-19.8-45.6-29.6c4.5-33.8,6.8-67.1,7.7-101.8c-39.3-19.8-81.2-32.9-123.7-42.3
		c-16.9,28.5-32.4,59.3-45.9,89.4c-16-2.7-32.1-3.7-48.1-3.9v0c-0.1,0-0.2,0-0.3,0c-0.1,0-0.2,0-0.3,0v0
		c-16.1,0.2-32.2,1.2-48.2,3.9c-13.5-30.1-29-60.9-45.9-89.4c-42.4,9.4-84.3,22.5-123.6,42.3c0.9,34.7,3.1,68,7.7,101.8
		c-15.3,9.8-31.3,18.2-45.6,29.6c-14.5,11.1-29.3,21.8-42.4,34.8c-26.2-17.3-54-33.6-82.5-48c-30.8,33.2-59.6,68.9-83.1,109
		C66.5,474,86.3,503.2,104.7,525.9L104.7,525.9z"/>
	<path class="st1" d="M784.1,817.2l-4.7,66.9c-0.6,8.1-7,14.5-15,15.1l-160.5,11.5c-0.4,0-0.8,0-1.2,0c-8,0-14.9-5.9-16-13.9
		l-9.2-62.4h-131l-9.2,62.4c-1.2,8.4-8.7,14.4-17.2,13.8l-160.5-11.5c-8.1-0.6-14.5-7-15-15.1l-4.7-66.9l-135.5-13.1
		c0.1,14.6,0.2,30.5,0.2,33.7c0,143.1,181.5,211.9,407,212.7h0.3h0.3c225.5-0.8,407-69.6,407-212.7c0-3.2,0.2-19.1,0.3-33.7
		L784.1,817.2z"/>
	<path class="st0" d="M389.2,625.7c0,50.2-40.6,90.8-90.8,90.8c-50.1,0-90.8-40.6-90.8-90.8c0-50.1,40.7-90.8,90.8-90.8
		C348.6,534.9,389.2,575.5,389.2,625.7"/>
	<path class="st2" d="M367.4,631.1c0,33.3-27,60.2-60.3,60.2c-33.3,0-60.3-27-60.3-60.2s27-60.3,60.3-60.3
		C340.4,570.8,367.4,597.8,367.4,631.1"/>
	<path class="st0" d="M512,724.7c-16.1,0-29.2-11.9-29.2-26.6v-83.6c0-14.7,13.1-26.6,29.2-26.6c16.1,0,29.3,11.9,29.3,26.6v83.6
		C541.2,712.8,528.1,724.7,512,724.7"/>
	<path class="st0" d="M634.8,625.7c0,50.2,40.6,90.8,90.8,90.8c50.1,0,90.8-40.6,90.8-90.8c0-50.1-40.7-90.8-90.8-90.8
		C675.4,534.9,634.8,575.5,634.8,625.7"/>
	<path class="st2" d="M656.6,631.1c0,33.3,27,60.2,60.2,60.2c33.3,0,60.3-27,60.3-60.2s-27-60.3-60.3-60.3
		C683.6,570.8,656.6,597.8,656.6,631.1"/>
</g>
</svg>
